<?xml version="1.0" standalone="no"?>
<!DOCTYPE svg PUBLIC "-//W3C//DTD SVG 20010904//EN"
 "http://www.w3.org/TR/2001/REC-SVG-20010904/DTD/svg10.dtd">
<svg version="1.0" xmlns="http://www.w3.org/2000/svg"
 width="200.000000pt" height="234.000000pt" viewBox="0 0 200.000000 234.000000"
 preserveAspectRatio="xMidYMid meet">
<metadata>
Created by potrace 1.16, written by Peter Selinger 2001-2019
</metadata>
<g transform="translate(0.000000,234.000000) scale(0.100000,-0.100000)"
fill="#000000" stroke="none">
<path d="M923 2301 c-17 -11 -48 -45 -67 -75 -20 -31 -42 -56 -50 -56 -9 0
-53 -19 -99 -43 -236 -121 -389 -350 -404 -604 -6 -86 -8 -93 -27 -93 -12 0
-30 -11 -41 -25 -11 -14 -28 -35 -38 -46 -30 -38 -19 -89 19 -89 15 0 24 -6
24 -15 0 -18 41 -29 77 -20 l28 7 -21 -24 c-30 -34 -64 -93 -64 -112 0 -10
-12 -33 -26 -51 -32 -42 -28 -63 15 -92 47 -32 68 -29 88 11 25 47 70 113 83
121 12 7 40 -52 40 -84 0 -15 -11 -23 -40 -32 -49 -15 -62 -30 -58 -66 3 -31
-5 -31 128 -9 105 18 214 25 401 26 181 1 607 -17 697 -29 37 -5 93 -12 126
-16 l58 -5 -7 57 c-8 66 -11 73 -30 73 -7 0 -15 6 -18 14 -3 7 -15 16 -27 19
-16 4 -24 1 -27 -14 -3 -10 -12 -19 -19 -19 -8 0 -17 -7 -20 -15 -4 -8 -18
-15 -34 -15 -27 0 -27 1 -19 43 4 23 8 45 9 50 0 4 11 12 24 18 13 6 39 31 57
55 29 39 37 44 68 42 34 -3 34 -2 48 52 7 30 16 129 19 220 5 146 4 171 -14
220 -16 46 -24 56 -46 60 -23 4 -32 17 -58 79 -21 49 -47 91 -77 122 -40 41
-45 51 -37 72 33 91 -82 182 -326 257 -20 6 -65 12 -99 12 -46 1 -67 6 -80 19
-25 25 -94 25 -136 0z m120 -10 c4 -5 -3 -30 -17 -56 -15 -26 -26 -58 -26 -70
0 -29 38 -78 91 -118 94 -69 181 -96 337 -104 100 -5 112 -4 112 11 0 28 42
-7 82 -67 28 -43 78 -154 78 -174 0 -3 -17 12 -37 32 -20 20 -59 48 -87 62
-45 23 -58 25 -145 21 -123 -5 -178 -32 -244 -115 -126 -158 -128 -391 -6
-565 11 -14 44 -43 75 -63 48 -32 67 -39 126 -43 45 -3 77 0 93 8 13 7 35 10
49 6 21 -5 26 -12 26 -38 l0 -31 -77 7 c-43 4 -112 10 -153 13 -41 2 -118 8
-170 12 -52 5 -157 7 -232 6 -100 -2 -138 0 -138 9 0 16 -59 66 -78 66 -18 0
-72 -57 -72 -77 0 -14 -21 -20 -97 -26 l-52 -4 -6 39 c-5 26 -21 56 -49 87
-23 26 -48 62 -55 80 -13 29 -12 33 6 46 11 8 26 34 33 58 11 40 10 50 -8 91
-18 40 -25 46 -51 46 -40 0 -46 23 -32 122 24 174 103 325 223 429 99 86 131
107 210 138 65 26 77 36 114 87 27 39 55 65 80 76 37 17 79 16 97 -1z m56
-138 c48 -39 204 -105 285 -122 87 -18 119 -18 144 2 18 14 28 0 16 -21 -9
-13 -31 -18 -95 -22 -74 -5 -80 -6 -47 -14 21 -4 57 -6 81 -5 33 3 43 1 40 -8
-15 -38 -302 17 -391 75 -75 47 -134 124 -114 144 7 7 12 3 16 -10 6 -19 75
-82 127 -115 30 -20 165 -67 188 -66 9 0 -21 12 -65 27 -130 43 -244 133 -244
193 0 22 2 21 21 -11 12 -19 29 -40 38 -47z m391 -343 c-8 -5 -27 -10 -41 -10
-32 0 -50 -19 -47 -49 2 -18 -5 -25 -36 -36 -63 -22 -119 -91 -139 -172 -9
-37 -18 -81 -20 -98 -8 -69 33 -172 94 -235 62 -64 95 -80 169 -81 50 -1 57
-3 30 -8 -31 -5 -35 -10 -38 -39 -2 -18 -8 -30 -13 -26 -6 3 -27 6 -47 6 -50
0 -82 18 -131 74 -160 182 -174 412 -35 581 52 63 123 95 221 101 34 1 44 -1
33 -8z m91 -26 c52 -26 111 -87 131 -134 11 -25 26 -86 34 -136 14 -83 13 -98
-1 -155 -22 -88 -62 -165 -112 -217 -42 -43 -43 -43 -66 -25 l-24 17 44 28
c73 47 119 176 110 308 -6 97 -34 157 -97 212 -35 31 -46 49 -51 79 -3 21 -4
39 -2 39 2 0 18 -7 34 -16z m-45 -84 c29 -16 68 -48 88 -71 35 -41 36 -45 36
-124 0 -91 -29 -212 -62 -261 -12 -17 -43 -46 -70 -65 -39 -26 -58 -32 -90
-30 -94 5 -197 131 -213 259 -4 32 0 71 14 121 16 62 27 82 64 119 43 42 113
78 162 81 11 0 43 -12 71 -29z m-241 -705 c268 -23 450 -53 450 -75 0 -8 -8
-14 -18 -14 -10 1 -62 5 -115 8 -53 4 -117 8 -142 11 -25 2 -117 7 -205 10
-88 4 -191 8 -230 9 -112 5 -475 -10 -535 -22 -124 -24 -120 -24 -120 2 0 30
30 42 149 57 47 6 104 15 126 20 40 8 524 4 640 -6z"/>
<path d="M670 1890 c-131 -37 -257 -185 -268 -314 -3 -40 3 -68 28 -133 45
-118 70 -136 230 -163 60 -10 71 -9 125 11 80 30 148 95 176 168 26 71 24 213
-6 274 -19 41 -91 117 -109 117 -6 0 -27 8 -46 18 -42 23 -96 32 -130 22z
m124 -41 c17 -10 38 -19 47 -19 24 0 94 -85 108 -132 21 -67 16 -185 -8 -238
-40 -88 -62 -110 -141 -146 -55 -26 -56 -26 -180 -9 -25 4 -62 14 -83 22 -57
24 -103 110 -121 227 -11 66 62 199 139 256 96 70 169 82 239 39z"/>
<path d="M627 1828 c-22 -6 -56 -28 -82 -54 -89 -87 -123 -172 -106 -262 23
-117 73 -170 174 -184 53 -7 66 -5 132 23 84 35 141 86 161 144 17 50 18 157
2 204 -38 115 -147 164 -281 129z m198 -41 c46 -29 67 -77 73 -163 8 -130 -36
-208 -146 -257 -98 -43 -183 -17 -235 72 -28 49 -32 65 -32 126 1 99 43 173
134 233 53 36 140 31 206 -11z"/>
<path d="M924 1325 c-8 -13 -13 -29 -9 -35 3 -5 -6 -20 -20 -32 -20 -18 -26
-32 -27 -66 0 -24 4 -47 8 -51 20 -18 75 -30 98 -21 28 10 56 47 56 72 0 10 8
26 18 36 22 22 33 58 25 78 -8 22 -57 44 -97 44 -27 0 -40 -6 -52 -25z"/>
<path d="M709 906 c-2 -2 -45 -7 -94 -11 -50 -4 -124 -12 -165 -19 l-75 -11
-3 -37 c-3 -35 0 -39 32 -55 33 -15 36 -21 36 -57 0 -30 3 -37 10 -26 5 8 10
36 10 62 0 53 0 53 98 63 52 6 62 4 62 -8 0 -21 60 -51 74 -37 5 5 18 10 28
10 12 0 18 8 18 24 0 18 7 25 28 30 25 5 491 -1 577 -9 22 -2 77 -6 123 -10
l82 -7 0 -69 c0 -56 4 -73 20 -89 11 -11 24 -20 29 -20 5 0 30 -16 55 -35 41
-31 46 -33 46 -15 0 27 17 25 72 -10 92 -58 155 -180 144 -283 -6 -65 -22
-101 -67 -151 -32 -37 -89 -59 -185 -72 -68 -8 -223 12 -307 42 -80 27 -260
121 -333 173 -55 39 -336 302 -329 309 6 6 103 -49 130 -74 25 -23 35 -21 35
6 0 9 11 28 23 42 18 19 34 26 66 26 49 1 71 15 71 47 0 22 -17 33 -77 50 -42
12 -185 -15 -240 -44 -28 -16 -55 -25 -60 -20 -19 18 -137 49 -187 49 -46 0
-59 4 -81 26 -24 24 -32 26 -84 22 -74 -5 -111 -28 -111 -68 0 -27 -4 -31 -43
-41 -46 -11 -114 -54 -131 -82 -16 -24 1 -48 55 -74 54 -28 127 -31 426 -19
117 5 232 5 255 2 35 -6 59 -21 128 -83 103 -91 180 -150 240 -184 25 -14 54
-30 65 -37 35 -20 212 -83 272 -97 80 -20 227 -19 294 1 68 20 159 66 180 90
53 61 69 227 30 307 -28 57 -104 127 -177 163 -30 15 -53 29 -50 31 2 2 19 7
38 10 61 9 76 41 33 69 -19 12 -40 15 -89 11 -35 -3 -73 -10 -84 -16 -12 -6
-31 -11 -43 -11 -19 0 -21 4 -15 31 3 17 6 44 6 59 0 24 3 27 25 22 14 -2 26
-9 27 -16 0 -6 2 -15 2 -21 3 -25 20 -35 57 -35 27 0 42 5 46 16 3 8 17 20 31
25 21 8 24 14 18 41 -3 17 -7 33 -9 34 -2 2 -125 19 -212 28 -22 3 -58 7 -80
10 -22 3 -62 9 -90 12 -57 7 -670 16 -676 10z m681 -31 c25 -3 77 -10 115 -15
39 -5 79 -11 90 -14 11 -2 45 -7 75 -11 76 -9 90 -14 90 -31 0 -17 5 -17 -85
1 -229 48 -705 64 -1015 34 -198 -18 -223 -21 -252 -29 -25 -8 -28 -6 -28 16
0 28 2 29 165 48 90 11 205 14 460 11 187 -2 360 -6 385 -10z m-415 -217 c14
-6 25 -19 25 -29 0 -27 -43 -34 -93 -15 -24 9 -56 16 -72 16 -29 -1 -29 -1 8
-15 21 -7 40 -15 42 -17 2 -1 -10 -18 -25 -37 l-28 -33 -35 26 c-18 14 -48 31
-66 37 -41 14 -24 28 34 29 33 1 37 2 22 11 -10 6 -26 8 -35 4 -12 -4 -14 -3
-7 4 10 10 111 27 177 30 15 0 39 -4 53 -11z m-367 -44 c73 -34 112 -67 193
-159 l44 -50 -38 29 c-22 16 -61 50 -88 76 -107 104 -170 129 -304 124 -83 -4
-132 -13 -250 -47 -79 -22 -105 -40 -105 -72 0 -23 18 -35 85 -59 l40 -15 -37
0 c-20 -1 -40 4 -43 9 -4 6 -9 9 -13 6 -14 -7 -67 31 -70 51 -6 42 95 90 265
126 146 31 226 27 321 -19z m-52 -9 c44 -13 161 -97 163 -116 1 -6 -502 -25
-544 -20 -11 1 -37 9 -58 18 -91 39 6 94 223 127 62 9 171 5 216 -9z"/>
</g>
</svg>
